<svg width="40" height="40" viewBox="0 0 40 40" fill="none" xmlns="http://www.w3.org/2000/svg">
<g clip-path="url(#clip0_101_2)">
<path d="M15.5268 3.70235C16.4312 -1.31401 23.8144 -1.23261 24.51 3.94527L25.0337 7.84544L28.1624 5.45773C32.3816 2.23754 37.7618 7.61802 34.5418 11.8372L32.1535 14.9652L36.0549 15.4895C41.3151 16.1961 41.315 23.8034 36.0549 24.51L32.1535 25.0337L34.5418 28.1623C37.762 32.3816 32.3815 37.7625 28.1624 34.5424L25.0337 32.1535L24.51 36.0549C23.8034 41.3151 16.1962 41.315 15.4896 36.0549L14.9653 32.1535L11.8372 34.5424C7.61801 37.7621 2.23779 32.3814 5.45779 28.1623L7.8455 25.0337L3.94473 24.51C-1.31495 23.803 -1.31487 16.1964 3.94473 15.4895L7.8455 14.9652L5.45779 11.8372C2.2885 7.684 7.45182 2.40616 11.6382 5.31308L11.8372 5.45773L14.9653 7.84544L15.4896 3.94527L15.5268 3.70235ZM20.4994 13.125C19.5108 13.125 18.6352 13.3022 17.8724 13.656C17.1174 14.0015 16.5256 14.4902 16.0975 15.1221C15.6695 15.7539 15.4554 16.491 15.4554 17.3334C15.4554 18.5129 15.825 19.444 16.5644 20.1264C17.3117 20.8004 18.4876 21.2848 20.091 21.5797C20.939 21.7481 21.5071 21.904 21.7952 22.0472C22.0909 22.1904 22.2389 22.4141 22.2389 22.7174C22.2388 23.0627 22.0794 23.3279 21.7604 23.5133C21.4413 23.6902 20.9782 23.7788 20.3712 23.7788C19.7096 23.7788 19.0086 23.6525 18.2691 23.3997C17.5297 23.1386 16.8369 22.7848 16.1909 22.3383L15.0001 25.1814C15.6617 25.7206 16.4478 26.1377 17.3585 26.4326C18.277 26.7275 19.2891 26.8751 20.3944 26.8751C21.4374 26.8751 22.348 26.6979 23.1263 26.3441C23.9125 25.9818 24.5239 25.4767 24.9598 24.828C25.4035 24.1792 25.6251 23.4166 25.6251 22.5404C25.6251 21.4114 25.2708 20.535 24.5625 19.9116C23.8542 19.2797 22.6515 18.7783 20.9547 18.4076C20.1141 18.2139 19.5534 18.0411 19.2732 17.8895C18.9931 17.7378 18.8532 17.5059 18.8532 17.1943C18.8533 16.8911 19.0128 16.6553 19.3318 16.4869C19.6587 16.3099 20.0829 16.2214 20.6044 16.2214C21.0247 16.2214 21.4571 16.276 21.9007 16.3855C22.3444 16.4951 22.7724 16.6509 23.1849 16.8531C23.6052 17.0553 23.9748 17.2871 24.2939 17.5483L25.45 14.7046C24.835 14.2076 24.0953 13.8199 23.2313 13.5419C22.3752 13.2639 21.4645 13.125 20.4994 13.125Z" fill="#207DFF"/>
</g>
<defs>
<clipPath id="clip0_101_2">
<rect width="40" height="40" fill="white"/>
</clipPath>
</defs>
</svg>
